<svg xmlns="http://www.w3.org/2000/svg" xmlns:xlink="http://www.w3.org/1999/xlink" width="500" zoomAndPan="magnify" viewBox="0 0 375 374.999991" height="500" preserveAspectRatio="xMidYMid meet" version="1.0"><defs><clipPath id="8f4a8b894c"><path d="M 19 52.128906 L 356 52.128906 L 356 322.878906 L 19 322.878906 Z M 19 52.128906 " clip-rule="nonzero"/></clipPath></defs><g clip-path="url(#8f4a8b894c)"><path fill="#000000" d="M 355.460938 176.316406 L 351.492188 165.125 C 349.328125 158.992188 342.476562 153.9375 336.34375 153.9375 L 322.277344 153.9375 C 311.820312 124.703125 299.195312 89.332031 295.226562 81.03125 C 289.457031 68.039062 271.0625 62.265625 260.964844 59.375 C 260.964844 59.375 244.011719 52.878906 187.386719 52.878906 C 130.761719 52.878906 114.171875 59.375 114.171875 59.375 C 102.269531 63.347656 85.679688 69.121094 79.1875 81.394531 C 75.941406 87.527344 62.957031 123.621094 52.496094 153.9375 L 38.792969 153.9375 C 32.660156 153.9375 25.808594 158.992188 23.644531 165.125 L 19.675781 176.316406 C 17.511719 182.449219 20.757812 187.503906 26.890625 187.503906 L 40.957031 187.503906 C 39.152344 192.554688 38.070312 195.445312 38.070312 195.445312 C 36.988281 197.25 36.269531 205.550781 36.269531 208.074219 L 36.269531 310.214844 C 36.269531 316.714844 41.679688 322.128906 48.171875 322.128906 L 91.449219 322.128906 C 97.941406 322.128906 103.351562 316.714844 103.351562 310.214844 L 103.351562 288.5625 L 271.785156 288.5625 L 271.785156 310.214844 C 271.785156 316.714844 277.195312 322.128906 283.6875 322.128906 L 327.328125 322.128906 C 333.820312 322.128906 339.230469 316.714844 339.230469 310.214844 L 339.230469 208.074219 C 339.230469 205.910156 338.507812 197.25 337.425781 195.445312 C 337.425781 195.445312 336.34375 192.554688 334.539062 187.503906 L 348.246094 187.503906 C 354.015625 187.503906 357.261719 182.449219 355.460938 176.316406 Z M 103.351562 239.117188 L 88.925781 229.371094 C 62.234375 227.203125 58.988281 236.589844 53.21875 226.484375 L 53.21875 214.210938 C 53.21875 202.300781 60.070312 201.941406 67.644531 201.941406 C 74.859375 201.941406 89.285156 208.074219 99.023438 212.40625 C 109.484375 217.097656 117.058594 213.128906 121.023438 228.648438 C 120.664062 235.867188 116.695312 239.117188 103.351562 239.117188 Z M 78.105469 158.628906 C 87.121094 121.816406 102.269531 96.191406 104.433594 90.054688 C 105.875 85.722656 102.269531 77.785156 187.75 77.785156 C 273.226562 77.785156 268.539062 89.332031 268.898438 89.695312 C 272.867188 97.996094 288.734375 125.0625 297.03125 158.628906 C 297.03125 158.628906 264.933594 162.960938 191.714844 162.960938 C 118.5 162.960938 78.105469 158.628906 78.105469 158.628906 Z M 254.472656 228.648438 C 271.425781 207.714844 266.015625 217.097656 276.472656 212.40625 C 285.851562 208.074219 300.636719 201.941406 307.851562 201.941406 C 315.425781 201.941406 322.277344 202.300781 322.277344 214.210938 L 322.277344 226.484375 C 316.867188 236.226562 312.179688 227.566406 285.128906 230.09375 L 271.785156 238.753906 C 258.441406 239.117188 249.785156 234.0625 254.472656 228.648438 Z M 254.472656 228.648438 " fill-opacity="1" fill-rule="nonzero"/></g></svg>